HIERARCHY
ROOT Hips
{
     OFFSET 13.53930 95.05370 -40.14600
     CHANNELS 6 Xposition Yposition Zposition Zrotation Xrotation Yrotation
     JOINT Spine
     {
          OFFSET 0.00000 11.89050 0.00000
          CHANNELS 3 Zrotation Xrotation Yrotation
          JOINT Spine1
          {
               OFFSET 0.00000 25.65740 0.12766
               CHANNELS 3 Zrotation Xrotation Yrotation
               JOINT HEad
               {
                    OFFSET 0.00000 8.73416 0.01134
                    CHANNELS 3 Zrotation Xrotation Yrotation
                    End Site
                    {
                         OFFSET -0.29000 12.77420 2.51395
                    }
               }
               JOINT LeftShoulder1
               {
                    OFFSET 8.99000 -0.36225 -0.22000
                    CHANNELS 3 Zrotation Xrotation Yrotation
                    JOINT LeftArm
                    {
                         OFFSET 10.28270 -0.00338 0.32212
                         CHANNELS 3 Zrotation Xrotation Yrotation
                         JOINT LeftForeArm
                         {
                              OFFSET 32.76690 0.09914 -1.42434
                              CHANNELS 3 Zrotation Xrotation Yrotation
                              JOINT LeftHand
                              {
                                   OFFSET 27.56430 0.08536 1.02216
                                   CHANNELS 3 Zrotation Xrotation Yrotation
                                   End Site
                                   {
                                        OFFSET 16.74430 -0.60000 1.50291
                                   }
                              }
                         }
                    }
               }
               JOINT RightShoulder
               {
                    OFFSET -8.99000 -0.36225 -0.22000
                    CHANNELS 3 Zrotation Xrotation Yrotation
                    JOINT RightArm
                    {
                         OFFSET -10.28270 -0.00338 0.32212
                         CHANNELS 3 Zrotation Xrotation Yrotation
                         JOINT RightForeArm
                         {
                              OFFSET -32.89710 0.09914 -1.42434
                              CHANNELS 3 Zrotation Xrotation Yrotation
                              JOINT RightHand
                              {
                                   OFFSET -27.49210 0.08536 1.02216
                                   CHANNELS 3 Zrotation Xrotation Yrotation
                                   End Site
                                   {
                                        OFFSET -16.63120 -0.60000 1.50291
                                   }
                              }
                         }
                    }
               }
          }
     }
     JOINT LeftUpLeg
     {
          OFFSET 8.94580 -8.66707 0.10165
          CHANNELS 3 Zrotation Xrotation Yrotation
          JOINT LeftLeg
          {
               OFFSET -0.00000 -44.42270 1.37270
               CHANNELS 3 Zrotation Xrotation Yrotation
               JOINT LeftFoot
               {
                    OFFSET -0.25355 -42.09240 -1.46059
                    CHANNELS 3 Zrotation Xrotation Yrotation
                    JOINT LeftToes
                    {
                         OFFSET -0.04000 -4.41509 8.49910
                         CHANNELS 3 Zrotation Xrotation Yrotation
                         End Site
                         {
                              OFFSET 0.08000 -0.04745 9.77979
                         }
                    }
               }
          }
     }
     JOINT RightUpLeg
     {
          OFFSET -8.94580 -8.66707 0.10165
          CHANNELS 3 Zrotation Xrotation Yrotation
          JOINT RightLeg
          {
               OFFSET 0.00000 -44.42270 1.37270
               CHANNELS 3 Zrotation Xrotation Yrotation
               JOINT RightFoot
               {
                    OFFSET 0.25355 -42.09240 -1.46059
                    CHANNELS 3 Zrotation Xrotation Yrotation
                    JOINT RightToes
                    {
                         OFFSET 0.04000 -4.41509 8.49910
                         CHANNELS 3 Zrotation Xrotation Yrotation
                         End Site
                         {
                              OFFSET -0.08000 -0.13745 9.77979
                         }
                    }
               }
          }
     }
}
MOTION
Frames: 6
Frame Time: 0.01667
20.08890 91.83760 -15.07780 -12.89770 -11.20980 -55.77420 -12.83720 9.69030 6.78832 -14.34250 20.59200 11.34870 -11.55030 3.94412 12.82720 -0.00000 0.00000 -0.00000 -39.92130 -24.96910 17.34070 -86.97330 -60.14070 -126.33400 -36.17790 9.80436 4.58809 7.78365 0.87385 4.76603 96.33880 -14.03020 67.38580 36.95440 37.85130 87.37050 13.03440 11.87590 12.22850 33.07480 -2.62158 -8.77869 -39.96690 34.51540 76.49700 -1.19974 23.56530 0.16848 -4.92132 -43.00710 -68.74750 -32.46630 -2.63886 10.68330 41.33740 28.15470 -35.07090 -36.63500 11.45290 6.26167 10.43670 -57.47990 11.68120 
20.78930 91.92420 -12.82130 -14.18410 -9.07714 -62.83470 -10.78260 8.96392 6.27510 -13.76460 19.39480 10.19880 -12.85890 2.15501 17.00540 -0.00000 0.00000 -0.00000 -40.19990 -23.53320 19.02540 -91.03560 -59.94890 -130.75900 -37.32330 9.14658 6.51275 6.99581 0.78008 4.30902 94.88790 -14.05510 66.91720 36.27630 37.78890 88.19060 13.31310 11.90760 12.15830 34.24050 3.27989 -13.99850 -39.01290 28.86250 78.62110 -1.66173 20.09800 0.26450 -3.60904 -41.62420 -66.12580 -32.11960 -6.54015 8.09769 42.23600 30.49130 -35.57220 -35.76390 14.19920 6.99797 10.00750 -55.51500 11.89510 
21.54630 91.63620 -10.86540 -15.27600 -7.06074 -68.11660 -8.55059 8.71401 5.24769 -13.08610 18.76830 8.53728 -13.26330 0.39810 21.06710 -0.00000 0.00000 -0.00000 -37.88590 -23.99100 19.23640 -85.51240 -56.00130 -124.50300 -37.85370 8.56104 8.17184 7.03868 0.74295 3.93532 93.43540 -13.86710 66.78810 36.15820 37.66090 88.64600 13.52860 11.93190 12.10480 35.16960 8.83386 -19.35470 -37.14590 22.65110 79.06010 -2.24915 16.68070 0.35984 -2.37983 -40.46310 -62.90440 -31.62970 -9.57199 5.13204 44.04280 32.48880 -37.55980 -34.62870 15.42910 7.14938 8.48488 -52.23740 10.13910 
22.41450 91.09100 -9.38399 -16.18040 -5.60535 -71.43200 -6.93710 8.75287 3.88114 -12.55310 18.61920 6.34263 -12.78630 -0.81106 24.94520 -0.00000 0.00000 -0.00000 -33.11380 -25.20450 17.19500 -75.14250 -48.97320 -111.43900 -37.51860 8.37307 8.75559 8.17479 0.76957 3.66782 91.86300 -13.59190 66.89210 36.46300 37.52390 88.82610 13.59650 11.95050 12.17520 35.94470 13.30970 -23.39030 -35.17840 17.31040 78.12210 -2.74732 13.85390 0.41474 -1.51350 -40.02140 -59.53950 -31.42160 -11.29820 2.28134 46.44350 33.55900 -40.13190 -33.12820 15.70710 6.90445 7.03236 -48.82330 8.15420 
23.43050 90.43120 -8.44110 -16.96000 -5.00834 -72.91970 -6.40270 8.86943 2.40192 -12.39280 18.78330 3.69904 -11.58720 -1.11555 28.58950 -0.00000 0.00000 -0.00000 -27.47960 -25.59400 11.57910 -66.18320 -40.12260 -98.26230 -36.15570 8.62520 8.16898 10.50470 0.86938 3.57182 90.15900 -13.31720 67.10800 37.10660 37.42370 88.81520 13.51410 11.97330 12.45340 36.36110 16.01050 -25.36850 -33.91770 14.14660 76.90190 -3.29041 11.83210 0.47075 -1.19876 -40.40460 -57.24060 -31.72840 -11.65320 -0.01665 48.85550 33.50730 -42.66290 -31.60970 15.57580 6.53233 6.23256 -46.23240 7.21500 
24.61170 89.76800 -7.96258 -17.68620 -5.24776 -72.91040 -6.89965 8.98759 0.95074 -12.65570 19.19530 0.76171 -9.92333 -0.51900 31.89300 -0.00000 0.00000 -0.00000 -22.83300 -23.42760 1.58440 -61.22590 -32.86050 -89.54900 -34.54850 8.87046 7.57752 13.75810 1.03993 3.66033 88.48520 -12.96990 67.33920 38.06520 37.38850 88.65980 13.35370 12.00770 12.92180 36.25350 16.72600 -25.35580 -33.58830 13.64310 76.35150 -3.96506 10.55070 0.54878 -1.49705 -41.42090 -56.88910 -32.48920 -10.90240 -1.41502 50.75030 32.53770 -44.90330 -30.54710 15.05570 6.15656 5.91353 -44.35310 7.29257 
